<svg width="162" height="37" viewBox="0 0 162 37" fill="none" xmlns="http://www.w3.org/2000/svg">
<path d="M24.5258 20.16L28.9898 35.136L26.5418 36.768C25.6458 36.608 24.6858 36.256 23.6618 35.712C22.6378 35.168 21.7098 34.48 20.8778 33.648L20.1578 26.592L9.11781 26.544L6.23781 36H3.40581C2.73381 35.36 2.12581 34.608 1.58181 33.744C1.03781 32.848 0.605813 31.824 0.285813 30.672L5.99781 19.824L10.4138 7.536L5.37381 7.872C4.92581 7.104 4.66981 6.208 4.60581 5.184C4.57381 4.16 4.66981 3.248 4.89381 2.448H14.7338C15.3418 2.768 16.0138 3.232 16.7498 3.84C17.5178 4.416 18.2538 5.072 18.9578 5.808C19.6938 6.512 20.3178 7.248 20.8298 8.016L24.5258 20.16ZM10.7018 21.504L19.5818 21.408L19.5338 20.88L15.3578 7.824L10.7018 21.504ZM56.3221 29.808C56.6101 30.192 56.8981 30.736 57.1861 31.44C57.4741 32.144 57.6501 32.864 57.7141 33.6L51.2341 36.768C50.4021 36.352 49.5221 35.808 48.5941 35.136C47.6661 34.464 46.9301 33.728 46.3861 32.928C46.9621 30.912 47.3461 28.88 47.5381 26.832C47.7301 24.784 47.7781 22.88 47.6821 21.12C47.6181 19.328 47.4421 17.872 47.1541 16.752C46.3541 17.104 45.4901 17.728 44.5621 18.624C43.6661 19.488 42.7701 20.528 41.8741 21.744C40.9781 22.96 40.1461 24.272 39.3781 25.68L39.0901 36C38.3861 36.192 37.5701 36.288 36.6421 36.288C35.7141 36.288 34.8821 36.192 34.1461 36C33.1541 34.944 32.3381 33.744 31.6981 32.4C31.9861 30.96 32.3701 29.568 32.8501 28.224C33.3621 26.88 33.9221 25.616 34.5301 24.432L34.5781 23.712L34.0021 17.088L29.8261 18.144C29.6021 17.76 29.3301 17.232 29.0101 16.56C28.6901 15.856 28.4981 15.136 28.4341 14.4L34.9141 11.232C35.2341 11.264 35.6821 11.44 36.2581 11.76C36.8661 12.08 37.4581 12.432 38.0341 12.816C38.6421 13.168 39.0901 13.472 39.3781 13.728L39.1861 17.76C40.9781 15.712 42.7701 14.112 44.5621 12.96C46.3861 11.808 47.8901 11.232 49.0741 11.232C49.5541 11.488 50.0821 11.936 50.6581 12.576C51.2341 13.216 51.7621 13.936 52.2421 14.736C52.7221 15.504 53.0581 16.272 53.2501 17.04L52.4341 30.816L56.3221 29.808ZM65.2002 8.496C63.5362 7.6 62.0322 6.416 60.6882 4.944C60.7202 4.432 60.9282 3.856 61.3122 3.216C61.7282 2.544 62.2082 1.936 62.7522 1.392C63.3282 0.815999 63.8722 0.463999 64.3842 0.335999C64.8962 0.335999 65.4722 0.543999 66.1122 0.959999C66.7522 1.344 67.3442 1.824 67.8882 2.4C68.4322 2.944 68.7522 3.472 68.8482 3.984C68.8162 4.528 68.5922 5.136 68.1762 5.808C67.7602 6.448 67.2802 7.024 66.7362 7.536C66.1922 8.016 65.6802 8.336 65.2002 8.496ZM70.4802 29.568C70.7042 29.952 70.9762 30.544 71.2962 31.344C71.6162 32.112 71.8082 32.864 71.8722 33.6L65.3922 36.768C62.9602 35.648 61.2962 34.208 60.4002 32.448L61.4082 17.376L57.9042 18.432C57.6802 18.048 57.4082 17.472 57.0882 16.704C56.7682 15.904 56.5762 15.136 56.5122 14.4L62.9922 11.232C63.3122 11.264 63.7762 11.44 64.3842 11.76C64.9922 12.08 65.5842 12.432 66.1602 12.816C66.7682 13.2 67.2322 13.52 67.5522 13.776L66.2082 24.336V30.864L70.4802 29.568ZM110.892 29.808C111.18 30.192 111.468 30.736 111.756 31.44C112.044 32.144 112.22 32.864 112.284 33.6L105.804 36.768C104.972 36.352 104.092 35.808 103.164 35.136C102.236 34.464 101.5 33.728 100.956 32.928C101.532 30.912 101.916 28.88 102.108 26.832C102.3 24.784 102.348 22.88 102.252 21.12C102.188 19.328 102.012 17.856 101.724 16.704C100.636 17.152 99.4844 18.064 98.2684 19.44C97.0524 20.816 95.9324 22.448 94.9084 24.336L94.6204 36C93.9164 36.192 93.1004 36.288 92.1724 36.288C91.2444 36.288 90.4124 36.192 89.6764 36C88.6844 34.944 87.8684 33.744 87.2284 32.4C87.7084 30 88.4284 27.744 89.3884 25.632C89.5164 23.84 89.5324 22.16 89.4364 20.592C89.3404 19.024 89.1644 17.728 88.9084 16.704C87.6284 17.184 86.3484 18.16 85.0684 19.632C83.7884 21.072 82.6364 22.752 81.6124 24.672L81.3244 36C80.6204 36.192 79.8044 36.288 78.8764 36.288C77.9484 36.288 77.1164 36.192 76.3804 36C75.3884 34.944 74.5724 33.744 73.9324 32.4C74.2204 30.896 74.6044 29.456 75.0844 28.08C75.5964 26.704 76.1724 25.376 76.8124 24.096V23.712L76.2364 17.088L72.0604 18.144C71.8364 17.76 71.5644 17.232 71.2444 16.56C70.9244 15.856 70.7324 15.136 70.6684 14.4L77.1484 11.232C77.4684 11.264 77.9164 11.44 78.4924 11.76C79.1004 12.08 79.6924 12.432 80.2684 12.816C80.8764 13.168 81.3244 13.472 81.6124 13.728L81.4204 17.088C83.0204 15.264 84.5724 13.84 86.0764 12.816C87.6124 11.76 88.8764 11.232 89.8684 11.232C90.4124 11.488 90.9884 11.984 91.5964 12.72C92.2364 13.456 92.8124 14.272 93.3244 15.168C93.8364 16.032 94.1724 16.848 94.3324 17.616C96.0284 15.632 97.7084 14.08 99.3724 12.96C101.068 11.808 102.492 11.232 103.644 11.232C104.124 11.488 104.652 11.936 105.228 12.576C105.804 13.216 106.332 13.936 106.812 14.736C107.292 15.504 107.628 16.272 107.82 17.04L107.004 30.816L110.892 29.808ZM132.333 28.464C132.557 28.752 132.797 29.312 133.053 30.144C133.341 30.976 133.469 31.712 133.437 32.352C132.061 32.928 130.621 33.504 129.117 34.08C127.613 34.624 126.205 35.136 124.893 35.616C123.613 36.096 122.557 36.48 121.725 36.768C120.733 36.512 119.693 36.112 118.605 35.568C117.517 35.024 116.525 34.384 115.629 33.648C114.733 32.88 114.093 32.112 113.709 31.344L114.381 16.656C114.829 15.856 115.453 15.056 116.253 14.256C117.085 13.424 117.901 12.672 118.701 12C120.557 11.584 122.365 11.328 124.125 11.232C125.917 11.136 127.629 11.216 129.261 11.472C129.549 11.632 129.933 11.984 130.413 12.528C130.925 13.04 131.421 13.568 131.901 14.112C132.381 14.656 132.701 15.056 132.861 15.312L132.669 22.464C131.837 23.072 130.717 23.712 129.309 24.384C127.901 25.056 126.349 25.712 124.653 26.352C122.957 26.96 121.261 27.504 119.565 27.984C119.597 28.592 119.645 29.184 119.709 29.76C119.773 30.336 119.853 30.896 119.949 31.44L132.333 28.464ZM127.533 16.416C126.381 16.256 125.261 16.208 124.173 16.272C123.085 16.336 121.949 16.528 120.765 16.848C120.445 17.84 120.189 18.912 119.997 20.064C119.805 21.216 119.661 22.384 119.565 23.568C120.941 23.12 122.381 22.544 123.885 21.84C125.421 21.104 126.813 20.336 128.061 19.536L127.533 16.416ZM160.246 29.664C160.566 30.048 160.87 30.64 161.158 31.44C161.478 32.208 161.67 32.96 161.734 33.696L156.598 36.768C155.222 36.416 153.846 35.824 152.47 34.992C151.126 34.16 150.086 33.344 149.35 32.544C148.966 31.904 148.678 30.832 148.486 29.328C148.326 27.824 148.31 26.112 148.438 24.192C147.958 24.672 147.494 25.168 147.046 25.68C146.63 26.16 146.214 26.672 145.798 27.216L143.302 36C142.598 36.192 141.702 36.288 140.614 36.288C139.526 36.288 138.614 36.192 137.878 36C137.43 35.456 137.03 34.768 136.678 33.936C136.358 33.072 136.15 32.24 136.054 31.44C137.174 30 138.294 28.656 139.414 27.408C140.534 26.16 141.654 24.976 142.774 23.856C142.71 22.128 142.534 20.72 142.246 19.632C141.99 18.544 141.622 17.6 141.142 16.8L136.438 18.288C136.086 17.968 135.734 17.376 135.382 16.512C135.03 15.648 134.822 14.848 134.758 14.112L140.518 11.232C141.894 11.552 143.078 12.096 144.07 12.864C145.062 13.6 145.91 14.48 146.614 15.504L146.806 20.16C147.35 19.648 147.91 19.152 148.486 18.672C149.062 18.192 149.654 17.712 150.262 17.232C150.582 16.368 150.95 15.504 151.366 14.64C151.814 13.744 152.342 12.928 152.95 12.192C153.686 12 154.374 11.888 155.014 11.856C155.686 11.792 156.374 11.84 157.078 12C157.622 12.544 158.182 13.248 158.758 14.112C159.334 14.944 159.686 15.856 159.814 16.848C157.094 18.128 154.79 19.408 152.902 20.688C152.774 22.64 152.886 24.496 153.238 26.256C153.59 27.984 154.374 29.664 155.59 31.296L160.246 29.664Z" fill="#EA0024"/>
</svg>
