<svg xmlns="http://www.w3.org/2000/svg" width="45" height="35" viewBox="0 0 45 35" fill="none">
  <path d="M21.5913 9.07992L7.3937 20.9445V33.7499C7.3937 34.0814 7.52351 34.3994 7.75458 34.6338C7.98564 34.8683 8.29903 35 8.6258 35L17.2551 34.9773C17.5808 34.9757 17.8926 34.8432 18.1223 34.609C18.352 34.3747 18.481 34.0577 18.481 33.7272V26.249C18.481 25.9175 18.6108 25.5995 18.8419 25.365C19.0729 25.1306 19.3863 24.9989 19.7131 24.9989H24.6415C24.9682 24.9989 25.2816 25.1306 25.5127 25.365C25.7437 25.5995 25.8735 25.9175 25.8735 26.249V33.7217C25.873 33.8862 25.9045 34.0492 25.9662 34.2013C26.0279 34.3535 26.1186 34.4917 26.233 34.6082C26.3475 34.7247 26.4835 34.8172 26.6332 34.8802C26.783 34.9433 26.9435 34.9758 27.1056 34.9758L35.7318 35C36.0586 35 36.372 34.8683 36.603 34.6338C36.8341 34.3994 36.9639 34.0814 36.9639 33.7499V20.9359L22.7694 9.07992C22.6026 8.94344 22.3947 8.86901 22.1803 8.86901C21.966 8.86901 21.7581 8.94344 21.5913 9.07992ZM44.0176 17.1441L37.58 11.7599V0.937605C37.58 0.688936 37.4826 0.450453 37.3093 0.274618C37.136 0.0987832 36.901 0 36.6559 0H32.3436C32.0985 0 31.8634 0.0987832 31.6901 0.274618C31.5169 0.450453 31.4195 0.688936 31.4195 0.937605V6.61089L24.5252 0.855564C23.8636 0.303143 23.0333 0.0011043 22.1765 0.0011043C21.3197 0.0011043 20.4894 0.303143 19.8278 0.855564L0.335359 17.1441C0.241787 17.2226 0.164372 17.319 0.107535 17.4278C0.0506989 17.5367 0.0155557 17.6558 0.00411377 17.7784C-0.00732821 17.9011 0.00515527 18.0248 0.0408509 18.1425C0.0765466 18.2602 0.134755 18.3697 0.21215 18.4646L2.1758 20.8867C2.25298 20.9819 2.34792 21.0608 2.45517 21.1187C2.56243 21.1767 2.67989 21.2126 2.80085 21.2244C2.9218 21.2363 3.04386 21.2238 3.16005 21.1877C3.27624 21.1516 3.38427 21.0926 3.47796 21.0141L21.5913 5.87644C21.7581 5.73996 21.966 5.66553 22.1803 5.66553C22.3947 5.66553 22.6026 5.73996 22.7694 5.87644L40.8835 21.0141C40.977 21.0926 41.0849 21.1517 41.2009 21.1879C41.3169 21.2241 41.4389 21.2368 41.5597 21.2251C41.6806 21.2135 41.798 21.1779 41.9053 21.1202C42.0125 21.0625 42.1076 20.984 42.1849 20.889L44.1485 18.4669C44.2259 18.3715 44.2838 18.2615 44.3191 18.1432C44.3544 18.025 44.3663 17.9008 44.3541 17.7779C44.3419 17.655 44.3059 17.5357 44.2482 17.4269C44.1905 17.3182 44.1121 17.222 44.0176 17.1441Z" fill="black"/>
</svg>