<svg xmlns="http://www.w3.org/2000/svg" width="16" height="21" viewBox="0 0 16 21" fill="none">
  <g clip-path="url(#clip0_25_2)" filter="url(#filter0_d_25_2)">
    <path d="M3.85732 18.0008C3.78428 17.4348 3.71125 16.8736 3.63822 16.3075C3.52411 15.4249 3.41456 14.5423 3.30502 13.6645C3.19547 12.7867 3.08592 11.9136 2.97637 11.0358C2.89878 10.4314 2.83031 9.83181 2.74815 9.22741C2.73902 9.16985 2.7025 9.10269 2.65686 9.05952C1.90372 8.28723 1.78505 7.17916 2.36473 6.25337C2.42864 6.15264 2.42864 6.06629 2.40125 5.96076C2.07717 4.56968 2.85313 3.25055 4.02164 2.80444C4.12662 2.76607 4.2316 2.7181 4.34115 2.70851C4.50091 2.69891 4.57394 2.59818 4.64241 2.46867C5.46858 0.876114 7.55454 0.506758 8.82803 1.72516C8.91019 1.8067 8.97866 1.82589 9.09277 1.79231C10.6173 1.31263 12.2149 2.45907 12.3518 4.13317C12.3609 4.2339 12.3929 4.28667 12.4796 4.32984C13.2921 4.73277 13.7942 5.40433 13.9539 6.33012C14.0863 7.06883 13.9311 7.76438 13.4975 8.36878C13.3606 8.55585 13.3012 8.74773 13.2738 8.96838C13.0776 10.5561 12.8767 12.1439 12.6759 13.7316C12.5024 15.1131 12.3335 16.4898 12.1601 17.8713C12.1555 17.9145 12.1418 17.9577 12.1373 18.0008C9.37577 18.0008 6.61882 18.0008 3.85732 18.0008ZM3.87557 6.45964C3.82537 6.47882 3.79341 6.49321 3.7569 6.50281C3.19547 6.70907 2.94442 7.38543 3.21373 7.94186C3.2685 8.05219 3.3324 8.10975 3.46934 8.10975C6.32213 8.10495 9.17493 8.10495 12.0277 8.10015C12.1236 8.10015 12.2377 8.05698 12.3107 7.99462C12.7352 7.63966 12.9315 7.17916 12.8722 6.59874C12.7991 5.91759 12.297 5.35636 11.658 5.27002C11.4389 5.24124 11.2107 5.26522 10.9962 5.26522C11.4937 4.47374 11.2244 3.57194 10.6493 3.13063C10.1745 2.76607 9.27991 2.62216 8.60893 3.44722C8.32137 2.5742 7.74168 2.07532 6.86074 2.17126C5.93872 2.27679 5.46401 2.91477 5.37272 3.87894C4.66979 3.69666 4.06728 3.86455 3.67017 4.51212C3.26393 5.18847 3.37805 5.85044 3.87557 6.45964ZM8.77325 16.8304C8.96953 14.3073 9.1658 11.7937 9.36207 9.28018C8.44461 9.28018 7.54541 9.28018 6.63252 9.28018C6.82879 11.8033 7.02506 14.3121 7.22133 16.8304C7.74168 16.8304 8.24834 16.8304 8.77325 16.8304ZM3.88014 9.27538C3.8847 9.35213 3.8847 9.40969 3.89383 9.47205C4.03077 10.5753 4.17227 11.6834 4.3092 12.7867C4.46439 14.0003 4.61958 15.2139 4.77021 16.4323C4.82042 16.84 4.81129 16.84 5.20384 16.84C5.50053 16.84 5.80178 16.84 6.11673 16.84C5.92046 14.3025 5.72419 11.7889 5.52791 9.27538C4.97105 9.27538 4.43244 9.27538 3.88014 9.27538ZM10.4712 9.28018C10.275 11.8033 10.0787 14.3121 9.88242 16.84C10.3024 16.84 10.6949 16.8448 11.0874 16.8352C11.124 16.8352 11.1787 16.7728 11.1833 16.7297C11.3339 15.564 11.48 14.3984 11.6261 13.2328C11.763 12.1583 11.8954 11.0886 12.0323 10.0141C12.0642 9.76945 12.0871 9.52482 12.119 9.27538C11.5621 9.28018 11.0235 9.28018 10.4712 9.28018Z" fill="white"/>
    <path d="M5.24531 4.84706C5.55569 4.84706 5.80217 5.10129 5.80217 5.41789C5.80217 5.72968 5.54656 6.0031 5.24987 6.0031C4.95318 6.0031 4.71126 5.74407 4.7067 5.43228C4.70213 5.10609 4.93949 4.85186 5.24531 4.84706Z" fill="white"/>
    <path d="M9.64545 4.07957C9.95127 4.07957 10.2023 4.34339 10.1978 4.65998C10.1932 4.97657 9.93302 5.2404 9.63633 5.2356C9.33507 5.22601 9.10228 4.97657 9.09772 4.65998C9.09772 4.329 9.33507 4.07477 9.64545 4.07957Z" fill="white"/>
    <path d="M7.81057 7.15435C7.50019 7.15435 7.26283 6.90011 7.2674 6.57393C7.27196 6.25254 7.51844 5.99831 7.82426 6.0031C8.12095 6.0079 8.36744 6.26693 8.36744 6.57873C8.372 6.89052 8.11639 7.15435 7.81057 7.15435Z" fill="white"/>
    <path d="M11.5443 7.46133C11.2339 7.46133 10.9966 7.2071 11.0011 6.88092C11.0057 6.55953 11.2522 6.3053 11.558 6.31009C11.8547 6.31489 12.1012 6.57392 12.1012 6.88571C12.1057 7.2023 11.8501 7.46613 11.5443 7.46133Z" fill="white"/>
  </g>
  <defs>
    <filter id="filter0_d_25_2" x="0" y="0" width="16" height="21" filterUnits="userSpaceOnUse" color-interpolation-filters="sRGB">
      <feFlood flood-opacity="0" result="BackgroundImageFix"/>
      <feColorMatrix in="SourceAlpha" type="matrix" values="0 0 0 0 0 0 0 0 0 0 0 0 0 0 0 0 0 0 127 0" result="hardAlpha"/>
      <feOffset dy="1"/>
      <feGaussianBlur stdDeviation="1"/>
      <feColorMatrix type="matrix" values="0 0 0 0 0 0 0 0 0 0 0 0 0 0 0 0 0 0 0.25 0"/>
      <feBlend mode="multiply" in2="BackgroundImageFix" result="effect1_dropShadow_25_2"/>
      <feBlend mode="normal" in="SourceGraphic" in2="effect1_dropShadow_25_2" result="shape"/>
    </filter>
    <clipPath id="clip0_25_2">
      <rect width="12" height="17" fill="white" transform="translate(2 1)"/>
    </clipPath>
  </defs>
</svg>